# xmcd
#
# Track frame offsets: 
#        150
#        14060
#        33839
#        48503
#        68119
#        84998
#        98559
#        109372
#        124068
#        137620
#        153190
#        168421
#        185256
#
# Disc length: 2695 seconds
#
# Revision: 0
# Processed by: cddbd v1.5.2PL0 Copyright (c) Steve Scherf et al.
# Submitted via: ExactAudioCopy v0.99pb4
#
DISCID=a20a850d
DTITLE=Ashley Lewis - Here I Stand
DYEAR=2008
DGENRE=Bluegrass
TTITLE0=Here I Stand
TTITLE1=Fire in the Water
TTITLE2=Cascade
TTITLE3=I'd Rather Miss You
TTITLE4=Haunted
TTITLE5=Skies of Tennessee
TTITLE6=Fool Moonlight
TTITLE7=It Ain't Fair
TTITLE8=Blood Wood
TTITLE9=Shine
TTITLE10=Lucas
TTITLE11=Lucky 13
TTITLE12=Will-O'-The-Wisp
EXTD=Ashley Lewis: mandolin and vocals\nDanny Roberts: mandolin duet on 
EXTD=12\nJimmy Mattingly: fiddle and howl\nTony Wray: all guitar and banjo
EXTD=on 2, 3, 5, 6, 7, 8, 12\nAaron McDaris: banjo on 1, 9, 11\nTerry
EXTD=Smith: bass\nJamie Johnson: lead and harmony vocals on 1, 2, 4, 6,
EXTD=7, 10\nDale Ann Bradley: jarmony vocals on 5, 9\nAndrea Roberts:
EXTD=harmony vocals on 11\nDave Demay: harmony on 9\n\nProduced by Da
EXTD=nny Roberts www.songcitystudio.com\nThe Grascals appear courtesy 
EXTD=of Rounder Records\n© 2008 Ashley Lewis   www.AshtonGap.com\n\n
EXTT0=
EXTT1=
EXTT2=
EXTT3=
EXTT4=
EXTT5=
EXTT6=
EXTT7=
EXTT8=
EXTT9=
EXTT10=
EXTT11=
EXTT12=
PLAYORDER=
